<svg xmlns="http://www.w3.org/2000/svg" viewBox="0 0 347.8 118.2"><path d="M22.1 22.5c.1.4.3 1.1.4 1.7 3.6.2 7.1.3 10.5.5v.4H22.4c-.1 1.2-.1 2.3-.2 3.5h-.3c-.1-1.2-.2-2.4-.3-3.7h-.7v5.2h-.6l-.3-5.4c-.3 0-.7 0-1 .1-.1 1.4-.2 2.8-.3 4.7-.2-.8-.4-1.2-.6-2.1-.4 2.3-1.2 4.1-1.1 5.9.4 4.1 1.4 8.1 1.8 12.2.3 2.9.1 5.8.1 8.7v16.6c-.1-1.3-.3-3.7-.4-6.1h-1c-.4 5.2-1 10.3-1.5 15.5.4.1.8.1 1.2.2.5-2.1 1-4.3 1.6-6.4h.4v18.7c-.3 0-.6-.1-.9-.1-.3 2.2-.6 4.3-.9 6.5.2 0 .4.1.6.1.2-1.6.3-3.2.5-4.8.2 0 .3-.1.5-.1.3 1.3.6 2.7.9 4 .2 0 .3-.1.5-.1.1-.9.1-1.8.2-2.8h.4c-.1 2.4-.2 4.9-.3 7.3h.7l.3-6.3h.3v5.8c4.4-.2 8.6-.7 12.8-.4 3.7.3 7.4 2.1 11.1 2.1 7.5 0 15-.8 22.4-1.4 5.5-.4 11-.8 17.1-1.2-1.2-.1-2-.2-2.7-.3v-.5h16.7c-.6 1.1-.6 1.1-5.3 1.1-2 0-4.1 0-6.1.7h21.3v.9H65.8c0 .2-.1.5-.1.7.6.3 1.1.7 1.9 1.2-.7.2-1.2.4-2.5.9 1.9.4 3.1.6 4.3.9v.6c-4.4 0-9.7 1.6-12.9-.4-4-2.4-7.6-1.6-11.3-1.9-4.4-.4-8.8 0-13.2 0-3 0-6 .2-9 .2-.7 0-1.4.1-2 .1v.9l4.8.3v.2c-1.6.1-3.2.2-4.7.4v1h10v.7h-9.9v8.8h-.6v-4.5c0-2 .9-4.7-3-4.1-.1.5-.3 1.1-.5 2.1-.2-.9-.4-1.3-.5-1.8-.2 0-.3 0-.5.1.1 2.3.3 4.6.4 6.8H16v-6.8h-2.5c-.1 1.1-.3 2.3-.4 3.5h-.5c-.2-2.5-.4-4.9-.7-7.6-3.1-.2-6.3-.5-9.5-.7v-.2h7.1c1.5-3.7-.7-3.9-3.3-4.1h7.2c.5 0 1.5-.5 1.5-.8.3-4.4.5-8.8.6-13.2 0-2.7-.2-5.4-.4-8.2.4.2.6.4.9.6V28.2c-1.1-1.2-1.9-2.2-2.7-3.1-.4 1.2-.9 2.7-1.3 4.2-.2 0-.5-.1-.7-.1-.1-1.6-.2-3.2-.2-4.8-.3 0-.5 0-.8-.1-.1 2.1-.2 4.1-.3 6.2h-.6V19.2H1.3v-.6h8.2v-.8H.3v-.5c3-.3 6.1-.5 9.1-.8v-2.3c-1.1 0-2-.1-2.1-.1.8-1.1 1.9-2.5 2.8-3.6 0 .3.1 1.1.1 2.3.9-.7 1.5-1.2 2.8-2.2-.1-1.4-.2-3.5-.3-5.6.2 0 .4 0 .7-.1.1 1.4.2 2.8.3 4.1h.2c.1-.9.2-1.7.3-2.6h.5v5.4h.7c.4-2.4.9-4.8 1.3-7.2h.4v5.2c.4.1.7.1 1.1.2.4-2 .9-3.9 1.4-6.3v5c4.2.2 8.2.4 12.3.6v.6c-2 .3-4.1.7-6.1 1v.4c.8.1 1.5.2 2.3.3v.3h-5.5v.6c11.6.6 23.2 1.2 31.8 1.6H29.8c.7.5 1.7 1.2 2.9 1.8.8.4 1.7.6 2.6.6 6.1-.1 12.2-.3 18.3-.5 4.6-.2 9.2-.5 13.8-.4 2.6 0 5.2.7 8.5 1.2-1.3.2-2 .3-2.6.3v.7h52.8v1.1c-1.1.1-2.3.3-3.4.4 0 .4.1.8.1 1.2 6.5-.5 13-1 19.6-1.5v.4c-1.5.2-3 .4-5.1.7 1.3.6 2.1 1 2.9 1.4 0 .3-.1.6-.1.9h-17.4v-.1h12.6v-.9h-17.5v-.6c1-.2 2-.3 3-.5-15.4-.1-30.8-1-46.2-.7-15.9.3-31.8.8-47.7 1.8h33.2v.9c-12.8.2-25.3.2-38 .2zm32.7-3.4v-.5H26.1v.5h28.7zM331.8 80.5c.3.7.8 1.5.8 2.2.1 3.6 0 7.1 0 10.8 1.1.2 1.8.3 2.9.5-1.1.2-1.9.4-2.6.6 0 .3 0 .6-.1.8 2 .2 4 .4 5.5.5-.3.6-1.2 1.4-1 1.9.2.7 1.2 1.6 1.9 1.7 1.8.2 3.7.1 5.5.7h-7v.6h4.6c0 .2 0 .5.1.7-1.4.2-2.8.4-4.3.6 0 .2 0 .4-.1.6 1.4.3 2.8.6 4.3 1 0 .2 0 .4-.1.6-1.6-.1-3.2-.3-5.9-.5 1.2 1.4 1.9 2.3 2.5 3-2.3.9-2.3.9-3.5 9.2 0-1.1.1-2.3 0-3.4-.1-1-.3-1.9-.5-2.8-.3.1-.6.1-.9.2 0 .7.1 1.4.1 2.1-.2 0-.4.1-.6.1l-.6-2.4h-.4v5h-.6c-.3-1.8-.5-3.7-.9-6.4-.6 1.4-.8 1.9-.9 2.2-.3-.6-.7-1.3-1.3-2.4l-1.1 3.3v-5.2h-31.8c.8.6 1.1.9 1.9 1.4-1.4-.2-2.4-.3-3.4-.4-.2.2-.3.4-.5.6.5.2 1 .5.7.3h-46c.1-.3.2-.6.4-.8-.4-.3-.7-1-1.1-1-5.9-.3-11.7-.6-17.6-.7-6-.1-12 .2-18 .2-8.9.1-17.8.3-26.6.1-8.2-.2-16.5-.8-24.7-1.2-.5 0-1.1.1-1.6.2 0 .4-.1.7-.1 1.1l19.8 2.1v.2h-24.1v-.5c2.6-.1 5.2-.3 7.8-.4v-1c-7.8-.3-15.6-.6-23.5-.9v-1.3c7.8-.1 15.5-.4 23.3-.3 5.6 0 11.3.8 16.9.7 8.6-.2 17.2-.8 25.8-1.2.2 0 .4-.2 1.3-.9h-42.6v-.4c20.5-.6 41-1.1 61.4-1.7v.7c-4.1.3-8.3.6-12.4.8v1.1c10-.4 19.9-.9 29.9-1.3v.5l-8.7.6v.6c7.6.7 15.1 1.4 22.7 2.1-.4.2-.9.5-1.4.7.1.3.2.5.3.5 6.6 0 13.2 0 19.9-.1.7 0 1.4-.9 2.8-1.9h33.2l-.9-1.8h15.2c-2.3-.7-3.7-1.1-5.1-1.5.4-.1.9-.2 2.1-.5-1.3-.2-2-.3-2.6-.3v-.3c2.2.2 4.4.4 6.6.5 0-.2.1-.4.1-.6-1.8-.4-3.5-.8-5.3-1.2v-.3c2.5.2 5.1.3 7.6.5 0-.2.1-.4.1-.7-.5-.2-1-.4-.9-.3.4-1 .9-1.8 1-2.7.1-6.1 0-12.2.8-18.4v15.4h1.2c.3-4 .3-8.1.3-12.1z"/><path d="M331.8 80.5c-.3-3.5-.6-6.9-.9-10.4l-.3-2.7c-.3-3.6-.5-7.1-.7-10.7-.1-2 0-4 0-6.8-.6 1.6-.9 2.5-1.5 4.1.1-2.1.2-3.5.3-5-.1-.1-.3-.1-.4-.2-.3.9-.9 1.9-.9 2.8.1 6.7.3 13.3.5 19.9 0 .9 0 1.8-.6 2.7-.5-12.5-.9-24.9-1.4-37.4.3 0 .6 0 .9-.1v11.7c2.4-3.9 1.5-25-.8-25.7-.1 1.4-.2 2.7-.2 4.1h-.3c-.1-1.3-.1-2.6-.2-3.8-3.1 0-5.9.1-8.8 0-2.9-.1-5.8-.3-8.7-.9h15.8v-1h-18.2c0-.3-.1-.5-.1-.8.9-.1 1.7-.2 2.6-.2.9 0 1.8 0 2.7-.5h-16.9v.4h9.7c.1.7.2 1.3.3 2.2h-20.8v-.9c.8-.1 1.6-.2 3.3-.5-2-.7-3.1-1.1-4.3-1.4 0-.3 0-.6.1-1 13-.5 25.9-.9 38.9-1.4v-1.2c-6-.3-12.1-.5-18.1-.8-.6 0-1.2-.3-1.6-1h25v-.7c-1.7-.1-3.5-.3-5.2-.4v-.3c2-.1 3.9-.2 5.9-.3.1-1.2.1-2.2.1-3.2h.3c.1.9.2 1.7.3 2.7.6-.1 1.2-.1 1.9-.2-.2-1.9-.3-3.8-.5-5.7.3 0 .5 0 .8-.1.1 2 .2 3.9.3 5.9h.7V-.4c1.1 4.1-.4 8.5 1.7 12.3.3 0 .6-.1.9-.1.2-.8.4-1.6.8-3.3.1 1.7.2 2.4.3 3.2 1.6.3 3.3.5 5.5.9-2.3.6-3.9 1.1-5.6 1.6 0 .2.1.4.1.7 1.8.3 3.6.5 6.4.9-2.5.3-4 .5-5.6.7v.5h12.8v.4c-3.6.3-7.3.6-11 1v2.7c-.2.1-.3.1-.5.2-.3-.7-.6-1.4-1-2.3-.2 1.8-.4 3.3-.7 5.3 0 0-.7.2-1.7.5.3 3.3.5 6.8.8 10.2-.2.1-.3.1-.5.2-.5-1.7-.9-3.4-1.4-5.1-.3 0-.5.1-.8.1.4 4.4.8 8.8 1.3 13.2v1c.5 5.8 1 11.6 1.4 17.4.1 1-.2 2.1-.4 3.7-.5-4.7-1-8.8-1.4-13 0 0-.1 0-.1.1-.3 9.3-.3 18.6-.3 27.9zm-2.3-51.9c.5 3.5.9 6.5 1.2 9.1v-9.3c-.7.1-1.3.2-1.2.2zM149.2 20.6c5.2 0 9.7.1 14.2 0 3.7-.1 7.4-.7 11.1-.9 1.1-.1 2.1.3 3.2.2 7-.4 14-.9 21-.7-2 .1-3.9.2-5.9.4v1.1h14.5v1h-29.4c.5.6 1.1 1.1 1.5 1.6-6.9 0-14.1.2-21.2-.1-2.8-.3-5.5-1.6-9-2.6zM175.6 16.4c2.5 0 5.1.3 7.6 0 11.6-1.5 23.1-.8 34.7-.2 8.9.5 17.9 1.1 26.8 1.8h-19c-11.4 0-22.7-.1-34.1-.2-4.6-.1-9.2-.3-13.8-.6-.8 0-1.5-.2-2.3-.4.1 0 .1-.2.1-.4zM213 20.8c.1-.6.2-1.1.3-1.4H258c0 .4.1.8.1 1.2-1.6.3-3.3.7-4.9.8-3 .1-6 .3-8.9-.2-5.9-1-11.6.1-17.3.8-3.6.4-7.3-.7-11-1.1-1-.2-2-.1-3-.1zM131 14c16.3-.4 32.7-.8 49-1.1v.2l-7.2.6v.9h11.8v.5c-9 0-18.1.2-27.1 0-8.8-.3-17.7.8-26.5-1.1zM139.4 17.3h34.4v1.1h-34.4v-1.1z"/><path d="M333.2 90.3c1.5-8.7-1.9-18.1 2.6-27.4v27.4h-2.6zM122.4 104h-10.2v-.9h30.9v.7c-2 0-3.9-.2-5.9 0-1.7.2-3.3 1-4.9 1.2-3.2.3-6.5.4-9.8.5-3.1.1-6.1 0-9.2-.6h9c0-.4 0-.6.1-.9zM288.4 16.2c-12.1 1.4-24.1 2-36 1v-1h36zM302.9 103.3h-26.4c-.6 0-1.1.4-1.6 1.1l-18-.9v-.7c6.1 0 12.1.1 18.2-.1 2.3-.1 4.5-.8 6.8-1.2.7-.1 1.5-.2 2.2-.2 4.4.3 8.8.7 13.2.9 1.9.1 3.7 0 5.6 0v1.1zM12.8 38.5c.3 3.5.8 7 .9 10.4.2 5.2 0 10.3 0 15.5-.3 0-.6 0-.9.1-.6-8.6-1.2-17.3-1.7-25.9.6-.1 1.1-.1 1.7-.1zM164.4 99.5c6.8-.5 13.6-1.2 20.4.7-6.8-.7-13.8 3.1-20.4-.7zM107.2 22.1l-38.7 1.2V23c4.3-.2 8.5-.5 12.8-.7V22H77v-.2h30.3c-.1 0-.1.1-.1.3zM98.2 106c-2.4 1.6-25.2 1.2-26 0h26zM190 23.5l25.8-1.2v.7c-8.6.7-17.3 1.3-25.9 2 .1-.6.1-1.1.1-1.5zM93.6 16.3h33.9v.4H93.6v-.4zM60.7 13.6H84c.6 0 1.2.7 1.9 1.2H60.7v-1.2zM275.6 23.5h-25.3v-.3h25.4c0 .1 0 .2-.1.3zM226.4 107.1c4.4.4 8.9.8 13.6 1.2-.1.6-.2 1.2-.3 2.4-4.5-1.1-8.9-2.1-13.3-3.1v-.5zM104 14.3h20.1v.3H104v-.3zM267.2 20.9c1.5-.3 2.7-.5 4.8-.9-2.4-.6-4.1-1-5.7-1.5v-.3c3.7.2 7.4.5 11 .7v.2c-.8.1-1.6.1-2.4.2-1.2 2.6-3.4 3.1-7.7 1.6zM12 87.5c.4-5.3.7-10.7 1.1-16h.3v16H12zM74.7 101.5h-19v-.4h19v.4zM158.6 102h-26.5v-.3h26.6c-.1.1-.1.2-.1.3zM147.6 25.6l17.7-.9v.5c-5.9.3-11.8.7-17.7 1v-.6zM307 108.3h13.5v.3H307v-.3zM264.6 110.1H255v-.5h9.6v.5zM15.1 34.7v10.9H15c-.3-3.6-.6-7.3-.8-10.9h.9zM120.2 101H104c5.1-.2 10.6-.5 16.2-.8v.8zM334.3 40.4c.2 3.6.4 7.9.6 12.1h-.6V40.4zM112.7 107.3H101v-.7h11.6c.1.3.1.5.1.7zM44.1 108.3c-2.2-.1-4.4-.2-6.9-.4 2.3-3.6 4.7.9 6.9-.8v1.2zM234.2 22.8c-3.4.4-6.7.8-10.1 1.2v-.4c3.4-.5 6.7-1.1 10.1-1.6v.8zM21.3 38c.2 3.8.5 7.6.7 11.4h-.5c-.2-3.8-.5-7.6-.7-11.4h.5z"/></svg>
